<?xml version="1.0" encoding="UTF-8"?>
<svg id="_圖層_1" data-name="圖層 1" xmlns="http://www.w3.org/2000/svg" viewBox="0 0 289 288.22">
  <defs>
    <style>
      .cls-1 {
        fill: #050101;
      }

      .cls-2 {
        fill: #231815;
      }
    </style>
  </defs>
  <path class="cls-1" d="M144.5,88.15c18.37,0,33.31,14.94,33.31,33.31s-14.94,33.31-33.31,33.31-33.31-14.94-33.31-33.31,14.94-33.31,33.31-33.31m0-12c-25.02,0-45.31,20.28-45.31,45.31s20.28,45.31,45.31,45.31,45.31-20.28,45.31-45.31-20.28-45.31-45.31-45.31h0Z"/>
  <path class="cls-1" d="M144.5,133.46c18.37,0,33.31,14.94,33.31,33.31s-14.94,33.31-33.31,33.31-33.31-14.94-33.31-33.31,14.94-33.31,33.31-33.31m0-12c-25.02,0-45.31,20.28-45.31,45.31s20.28,45.31,45.31,45.31,45.31-20.28,45.31-45.31-20.28-45.31-45.31-45.31h0Z"/>
  <path class="cls-2" d="M217.05,221.87H71.95c-3.31,0-6-2.69-6-6V70.78c0-3.31,2.69-6,6-6H217.05c3.31,0,6,2.69,6,6V215.87c0,3.31-2.69,6-6,6Zm-139.1-12H211.05V76.78H77.95V209.87Z"/>
</svg>